<svg xmlns="http://www.w3.org/2000/svg" viewBox="0 0 24 24" width="24" height="24" fill="none" stroke="#6f4e37" stroke-width="1.5" stroke-linecap="round" stroke-linejoin="round">
  <path d="M17 2H3a2 2 0 0 0-2 2v2c0 1.1.9 2 2 2h14a2 2 0 0 0 2-2V4a2 2 0 0 0-2-2z" fill="#f8f1e9"/>
  <path d="M8 2v4M12 2v4"/>
  <path d="M4 8v10a4 4 0 0 0 4 4h4a4 4 0 0 0 4-4V8" fill="#f8f1e9"/>
  <path d="M19 10h2a2 2 0 0 1 2 2v1a2 2 0 0 1-2 2h-2"/>
  <path d="M7 15a2 2 0 0 0 2 2h2a2 2 0 0 0 2-2M7 11h6" stroke="#8b5a2b" stroke-width="1.5"/>
</svg>