<svg xmlns="http://www.w3.org/2000/svg" width="16" height="16" fill="currentColor" viewBox="0 0 16 16">
  <path d="M1.92.506a.5.5 0 0 1 .434.14L3 1.293l.646-.647a.5.5 0 0 1 .708 0L5 1.293l.646-.647a.5.5 0 0 1 .708 0L7 1.293l.646-.647a.5.5 0 0 1 .708 0L9 1.293l.646-.647a.5.5 0 0 1 .708 0l.646.647.646-.647a.5.5 0 0 1 .708 0l.646.647.646-.647a.5.5 0 0 1 .801.13l.5 1A.5.5 0 0 1 15 2v12a.5.5 0 0 1-.5.5h-13a.5.5 0 0 1-.5-.5V2a.5.5 0 0 1 .053-.224l.5-1a.5.5 0 0 1 .367-.27zM2 2.118l-.428.853A.5.5 0 0 0 2 3.5V14h12V3.5a.5.5 0 0 0 .428-.529L14 2.118V2H2v.118z"/>
  <path d="M3 8.5a.5.5 0 0 1 .5-.5h9a.5.5 0 0 1 0 1h-9a.5.5 0 0 1-.5-.5zm0 2a.5.5 0 0 1 .5-.5h6a.5.5 0 0 1 0 1h-6a.5.5 0 0 1-.5-.5zm0-5a.5.5 0 0 1 .5-.5h9a.5.5 0 0 1 0 1h-9a.5.5 0 0 1-.5-.5zm4 10.5a.5.5 0 0 1 .5-.5h6a.5.5 0 0 1 0 1h-6a.5.5 0 0 1-.5-.5z"/>
</svg>